<svg width="168" height="32" viewBox="0 0 168 32" fill="none" xmlns="http://www.w3.org/2000/svg">
<path d="M14.0979 5.8541C14.6966 4.01148 17.3034 4.01148 17.9021 5.8541L19.1432 9.67376C19.4109 10.4978 20.1789 11.0557 21.0453 11.0557H25.0615C26.999 11.0557 27.8045 13.535 26.2371 14.6738L22.9879 17.0344C22.2869 17.5437 21.9936 18.4465 22.2614 19.2705L23.5024 23.0902C24.1012 24.9328 21.9922 26.465 20.4248 25.3262L17.1756 22.9656C16.4746 22.4563 15.5254 22.4563 14.8244 22.9656L11.5752 25.3262C10.0078 26.465 7.89885 24.9328 8.49755 23.0902L9.73863 19.2705C10.0064 18.4465 9.71306 17.5437 9.01209 17.0344L5.76289 14.6738C4.19546 13.535 5.00102 11.0557 6.93846 11.0557H10.9547C11.8211 11.0557 12.5891 10.4978 12.8568 9.67376L14.0979 5.8541Z" fill="#FBB03B"/>
<path d="M48.0979 5.8541C48.6966 4.01148 51.3034 4.01148 51.9021 5.8541L53.1432 9.67376C53.4109 10.4978 54.1789 11.0557 55.0453 11.0557H59.0615C60.999 11.0557 61.8045 13.535 60.2371 14.6738L56.9879 17.0344C56.2869 17.5437 55.9936 18.4465 56.2614 19.2705L57.5024 23.0902C58.1012 24.9328 55.9922 26.465 54.4248 25.3262L51.1756 22.9656C50.4746 22.4563 49.5254 22.4563 48.8244 22.9656L45.5752 25.3262C44.0078 26.465 41.8988 24.9328 42.4976 23.0902L43.7386 19.2705C44.0064 18.4465 43.7131 17.5437 43.0121 17.0344L39.7629 14.6738C38.1955 13.535 39.001 11.0557 40.9385 11.0557H44.9547C45.8211 11.0557 46.5891 10.4978 46.8568 9.67376L48.0979 5.8541Z" fill="#FBB03B"/>
<path d="M82.0979 5.8541C82.6966 4.01148 85.3034 4.01148 85.9021 5.8541L87.1432 9.67376C87.4109 10.4978 88.1789 11.0557 89.0453 11.0557H93.0615C94.999 11.0557 95.8045 13.535 94.2371 14.6738L90.9879 17.0344C90.2869 17.5437 89.9936 18.4465 90.2614 19.2705L91.5024 23.0902C92.1012 24.9328 89.9922 26.465 88.4248 25.3262L85.1756 22.9656C84.4746 22.4563 83.5254 22.4563 82.8244 22.9656L79.5752 25.3262C78.0078 26.465 75.8988 24.9328 76.4976 23.0902L77.7386 19.2705C78.0064 18.4465 77.7131 17.5437 77.0121 17.0344L73.7629 14.6738C72.1955 13.535 73.001 11.0557 74.9385 11.0557H78.9547C79.8211 11.0557 80.5891 10.4978 80.8568 9.67376L82.0979 5.8541Z" fill="#FBB03B"/>
<path d="M116.098 5.8541C116.697 4.01148 119.303 4.01148 119.902 5.8541L121.143 9.67376C121.411 10.4978 122.179 11.0557 123.045 11.0557H127.062C128.999 11.0557 129.805 13.535 128.237 14.6738L124.988 17.0344C124.287 17.5437 123.994 18.4465 124.261 19.2705L125.502 23.0902C126.101 24.9328 123.992 26.465 122.425 25.3262L119.176 22.9656C118.475 22.4563 117.525 22.4563 116.824 22.9656L113.575 25.3262C112.008 26.465 109.899 24.9328 110.498 23.0902L111.739 19.2705C112.006 18.4465 111.713 17.5437 111.012 17.0344L107.763 14.6738C106.195 13.535 107.001 11.0557 108.938 11.0557H112.955C113.821 11.0557 114.589 10.4978 114.857 9.67376L116.098 5.8541Z" fill="#FBB03B"/>
<path d="M150.098 5.8541C150.697 4.01148 153.303 4.01148 153.902 5.8541L155.143 9.67376C155.411 10.4978 156.179 11.0557 157.045 11.0557H161.062C162.999 11.0557 163.805 13.535 162.237 14.6738L158.988 17.0344C158.287 17.5437 157.994 18.4465 158.261 19.2705L159.502 23.0902C160.101 24.9328 157.992 26.465 156.425 25.3262L153.176 22.9656C152.475 22.4563 151.525 22.4563 150.824 22.9656L147.575 25.3262C146.008 26.465 143.899 24.9328 144.498 23.0902L145.739 19.2705C146.006 18.4465 145.713 17.5437 145.012 17.0344L141.763 14.6738C140.195 13.535 141.001 11.0557 142.938 11.0557H146.955C147.821 11.0557 148.589 10.4978 148.857 9.67376L150.098 5.8541Z" fill="#FBB03B"/>
</svg>
