<svg width="32" height="32" viewBox="0 0 32 32" fill="none" xmlns="http://www.w3.org/2000/svg">
<path d="M1.23071 27.9996C1.23071 29.3535 2.33841 30.4612 3.69225 30.4612H29.7846C30.3384 30.4612 30.7692 30.0304 30.7692 29.4765V27.7535C30.7692 27.1996 30.3384 26.7689 29.7846 26.7689H5.8461C5.35379 26.7689 4.92302 26.3381 4.92302 25.8458V2.5227C4.92302 1.96886 4.49225 1.53809 3.93841 1.53809H2.21533C1.66148 1.53809 1.23071 1.96886 1.23071 2.5227V27.9996Z" fill="#5DB6F2"/>
<path d="M30.5846 8.67721C30.5846 7.63105 29.7846 6.83105 28.7384 6.83105C28.1846 6.83105 27.7538 7.07721 27.3846 7.3849L22.0923 12.6772L18.4615 9.23105L18.4 9.16952C18.3384 9.10798 18.3384 9.10798 18.2769 9.04644C18.2154 9.04644 18.2154 8.9849 18.1538 8.9849C18.0923 8.92336 18.0307 8.92336 17.9692 8.86182C17.9077 8.86182 17.9077 8.80029 17.8461 8.80029C17.7846 8.80029 17.723 8.73875 17.6 8.73875C17.5384 8.73875 17.5384 8.73875 17.4769 8.67721C17.3538 8.67721 17.2307 8.61567 17.1077 8.61567C16.9846 8.61567 16.8615 8.61567 16.7384 8.67721C16.6769 8.67721 16.6769 8.67721 16.6154 8.73875C16.5538 8.73875 16.4307 8.80029 16.3692 8.80029C16.3077 8.80029 16.3077 8.86182 16.2461 8.86182C16.1846 8.92336 16.123 8.92336 16.0615 8.9849C16 8.9849 16 9.04644 15.9384 9.10798C15.8769 9.16952 15.8154 9.16952 15.7538 9.23105L8.73843 16.308C8.3692 16.6772 8.12305 17.108 8.12305 17.6618C8.12305 18.708 8.92305 19.508 9.9692 19.508C10.4 19.508 10.8307 19.3234 11.1384 19.0772L17.1692 13.108L20.6769 16.5541C20.7384 16.6157 20.8 16.6157 20.8615 16.6772C20.923 16.7387 20.923 16.7387 20.9846 16.8003C21.0461 16.8618 21.1077 16.8618 21.1692 16.9234C21.2307 16.9234 21.2307 16.9849 21.2923 16.9849C21.3538 17.0464 21.4769 17.0464 21.5384 17.0464C21.6 17.0464 21.6 17.0464 21.6615 17.108C21.7846 17.108 21.9077 17.1695 22.0307 17.1695C22.1538 17.1695 22.2769 17.1695 22.4 17.108C22.4615 17.108 22.4615 17.108 22.523 17.108C22.5846 17.108 22.6461 17.0464 22.7692 17.0464C22.8307 17.0464 22.8307 16.9849 22.8923 16.9849C22.9538 16.9849 23.0154 16.9234 23.0769 16.8618C23.1384 16.8618 23.1384 16.8003 23.2 16.8003L23.2615 16.7387L23.323 16.6772L23.3846 16.6157L30.0307 10.0311C30.3384 9.66182 30.5846 9.23105 30.5846 8.67721Z" fill="#FBB03B"/>
</svg>
