<svg width="30" height="31" viewBox="0 0 30 31" fill="none" xmlns="http://www.w3.org/2000/svg">
<g clip-path="url(#clip0_411_1726)">
<path d="M27.0454 22.0117H9.99747C8.82036 22.0117 7.86597 23.0389 7.86597 24.3057C7.86597 25.5716 8.82036 26.5988 9.99747 26.5988H27.0454C28.2221 26.5988 29.1765 25.5716 29.1765 24.3057C29.1765 23.0394 28.2221 22.0117 27.0454 22.0117Z" fill="#5DB6F2"/>
<path d="M27.0454 12.8838H9.99747C8.82036 12.8838 7.86597 13.9105 7.86597 15.1773C7.86597 16.4436 8.82036 17.4703 9.99747 17.4703H27.0454C28.2221 17.4703 29.1765 16.4436 29.1765 15.1773C29.1765 13.911 28.2221 12.8838 27.0454 12.8838Z" fill="#FBB03B"/>
<path d="M9.99747 8.34241H27.0454C28.2221 8.34241 29.1765 7.3157 29.1765 6.04889C29.1765 4.78209 28.2221 3.75586 27.0454 3.75586H9.99747C8.82036 3.75586 7.86597 4.78258 7.86597 6.04889C7.86597 7.31521 8.82036 8.34241 9.99747 8.34241Z" fill="#5DB6F2"/>
<path d="M3.10487 8.39755C4.29986 8.39755 5.26858 7.35541 5.26858 6.06987C5.26858 4.78433 4.29986 3.74219 3.10487 3.74219C1.90989 3.74219 0.941162 4.78433 0.941162 6.06987C0.941162 7.35541 1.90989 8.39755 3.10487 8.39755Z" fill="#5DB6F2"/>
<path d="M3.10491 17.504C4.29964 17.504 5.26816 16.4621 5.26816 15.1768C5.26816 13.8915 4.29964 12.8496 3.10491 12.8496C1.91017 12.8496 0.94165 13.8915 0.94165 15.1768C0.94165 16.4621 1.91017 17.504 3.10491 17.504Z" fill="#FBB03B"/>
<path d="M3.10487 26.6329C4.29986 26.6329 5.26858 25.5908 5.26858 24.3052C5.26858 23.0197 4.29986 21.9775 3.10487 21.9775C1.90989 21.9775 0.941162 23.0197 0.941162 24.3052C0.941162 25.5908 1.90989 26.6329 3.10487 26.6329Z" fill="#5DB6F2"/>
</g>
<defs>
<clipPath id="clip0_411_1726">
<rect width="28.2353" height="30.375" fill="white" transform="translate(0.941162)"/>
</clipPath>
</defs>
</svg>
