<svg width="16" height="16" viewBox="0 0 16 16" fill="none" xmlns="http://www.w3.org/2000/svg">
<path d="M14.6805 1.33781L12.7542 0.197753C12.4865 0.00175481 11.4679 -0.288976 10.828 0.691015L9.40779 3.08219C8.84951 4.03278 9.5645 4.85924 9.90078 5.00951C9.90078 5.00951 10.0412 5.07157 9.99546 5.12384C8.92786 6.39456 7.21383 8.26961 5.08844 10.0205C5.07538 10.0205 4.9154 9.7984 4.9154 9.7984C4.6379 9.35414 3.86413 8.84454 2.96957 9.39007L0.641761 10.9091C-0.249534 11.5101 -0.0340557 12.5522 0.233659 12.856L1.49388 14.7866C2.84551 16.6453 4.70646 15.8809 5.12109 15.6326C7.63173 14.1463 12.3331 10.7849 15.6469 4.98991C16.3749 3.71919 15.9407 2.0826 14.6805 1.33781Z" fill="#AAAAAA"/>
<path d="M0.765876 7.92009C1.1348 7.92009 1.4319 7.62283 1.4319 7.2537C1.4319 4.17326 3.93601 1.66775 7.01473 1.66775C7.38366 1.66775 7.68076 1.37048 7.68076 1.00135C7.68076 0.632225 7.38366 0.334961 7.01473 0.334961C3.20143 0.334961 0.0998535 3.43827 0.0998535 7.2537C0.0998535 7.61956 0.400217 7.92009 0.765876 7.92009Z" fill="#AAAAAA"/>
<path d="M3.46582 6.91686C3.46582 7.28599 3.76292 7.58325 4.13184 7.58325C4.50077 7.58325 4.79787 7.28599 4.79787 6.91686C4.79787 5.87807 5.64345 5.03201 6.68166 5.03201C7.05059 5.03201 7.34769 4.73474 7.34769 4.36561C7.34769 3.99648 7.05059 3.69922 6.68166 3.69922C4.90887 3.69922 3.46582 5.14307 3.46582 6.91686Z" fill="#AAAAAA"/>
</svg>
